<svg viewBox="-16 -16 32 32" height="200" width="200">
  <!-- PLAYER DESIGN -->
  <!-- MEDIC --/>
  <circle cx="0" cy="0" r="16" />
  <path d="M0 -14
           L4 -10
           V-4
           H10
           V4
           H4
           V10
           H-4
           V4
           H-10
           V-4
           H-4
           V-10
           Z" stroke="white" stroke-width="1"/>
  -->
  <!--
  <!-- ROCKET --/>
  <circle cx="0" cy="0" r="16" />
  <path d="M0 -14
           Q 4 -12 4 -8
           V 4
           Q 8 6 8 11.5
           Q 6 10 4 10
           H -4
           Q -6 10 -8 11.5
           Q -8 6 -4 4
           V -8
           Q -4 -12 0 -14
           Z"
        stroke="white" stroke-width=".5" fill="red"/>
  <path d="M 0 4
           Q 1 5 1 6
           Q 1 8 0 13
           Q -1 8 -1 6
           Q -1 5 0 4
           Z"
        stroke="white" stroke-width=".5" fill="red"/>
  -->

  <!--
  <!-- RAIL --/>
  <circle cx="0" cy="0" r="16" />
  <path d="M0 -14
           V 14
           Q -12 12 0 10
           Q 12 8 0 6
           Q -12 4 0 2
           Q 12 0 0 -2
           Q -12 -4 0 -6
           Q 12 -8 0 -10
           Z
           L 1 -12
           H -1
           Z"
        stroke="white" stroke-width="1" fill="green"/>
  -->

  <!-- POWERUPS -->
  <rect x="-16" y="-16" width="32" height="32" rx="4" ry="4" />
  <rect x="-12" y="-12" width="24" height="24" rx="2" ry="2" fill="white" />

  <!-- Minigun --->
  <g fill="black">
    <path d="M-10 -5
             a3 3 0 0 1 6 0
             v12
             h-6
             Z" />
    <path d="M-3 -5
             a3 3 0 0 1 6 0
             v12
             h-6
             Z" />
    <path d="M4 -5
             a3 3 0 0 1 6 0
             v12
             h-6
             Z" />
  </g>

  <!-- Shotgun --->
  <g stroke="black" transform="rotate(-45)">
    <rect x="-7" y="-7" width="5" height="14" fill="red" />
    <rect x="-7" y="4" width="5" height="3" fill="gold" />
    <line x1="-8" y1="7" x2="-1" y2="7" />

    <rect x="1" y="-7" width="5" height="14" fill="red" />
    <rect x="1" y="4" width="5" height="3" fill="gold" />
    <line x1="0" y1="7" x2="7" y2="7" />
  </g>

</svg>
